PathFileType	4	(X/Y/Z)	Patient4_TMGait_0pt4_01_right_42.trc.trc
DataRate	CameraRate	NumFrames	NumMarkers	Units	OrigDataRate	OrigDataStartFrame	OrigNumFrames
74.468085106383	74.468085106383	4	33	mm	74.468085106383	1	       141
Frame#	Time	Sacral			L.Shoulder			Chest			R.Shoulder			Neck			R.ASIS			L.ASIS			R.Thigh.Superior			R.Thigh.Lateral			R.Thigh.Inferior			R.Patella			L.Thigh.Superior			L.Thigh.Lateral			L.Thigh.Inferior			L.Patella			L.Shank.Superior			L.Shank.Lateral			L.Shank.Inferior			R.Shank.Superior			R.Shank.Lateral			R.Shank.Inferior			R.Heel			R.Midfoot.Superior			R.Midfoot.Lateral			R.Toe			L.Heel			L.Midfoot.Lateral			L.Midfoot.Superior			L.Toe			L.Elbow			L.Wrist			R.Elbow			R.Wrist			
		X1	Y1	Z1	X2	Y2	Z2	X3	Y3	Z3	X4	Y4	Z4	X5	Y5	Z5	X6	Y6	Z6	X7	Y7	Z7	X8	Y8	Z8	X9	Y9	Z9	X10	Y10	Z10	X11	Y11	Z11	X12	Y12	Z12	X13	Y13	Z13	X14	Y14	Z14	X15	Y15	Z15	X16	Y16	Z16	X17	Y17	Z17	X18	Y18	Z18	X19	Y19	Z19	X20	Y20	Z20	X21	Y21	Z21	X22	Y22	Z22	X23	Y23	Z23	X24	Y24	Z24	X25	Y25	Z25	X26	Y26	Z26	X27	Y27	Z27	X28	Y28	Z28	X29	Y29	Z29	X30	Y30	Z30	X31	Y31	Z31	X32	Y32	Z32	X33	Y33	Z33	

1	54.800000000000	858.690578834788	1007.535214041081	425.836875649219	1046.314574553055	1433.359633083046	232.223151944170	1141.874931721305	1372.945397690365	400.010730603471	1049.546879588970	1449.179994409715	568.312037654864	1023.436209044518	1499.370070156976	386.658397164487	1086.170910733961	953.841443595160	548.618694611205	1079.561440800648	963.846062843236	274.887853218849	1171.405012102399	780.378827418536	519.626066775571	1132.788716963972	659.911862835322	594.714379830616	1222.568538254660	620.779328247786	515.618090522777	1241.840638854763	508.643494963785	540.276716844978	1129.329850956814	750.960080362001	306.780899238970	1040.485816430761	635.730463536310	246.715777441213	1122.634551501384	557.851783475086	312.053122977241	1121.425788873565	488.125389935451	322.729239649188	1092.321920067757	415.889062571022	313.335698307247	999.602549875549	304.805781178887	261.934157411251	1044.842901594931	191.523659283661	332.971563979579	1166.116952889071	433.283061317663	550.385331002933	1044.154817622134	395.370297887932	611.694297690733	1031.016438738517	283.894306486161	567.900567523333	832.418000953288	226.634141923902	539.565125876729	997.089535535611	159.592539499454	588.261453267276	886.178045691512	165.212861157492	616.232240199351	1053.481260976520	41.884999252270	616.916988021791	912.933676310427	38.617120535854	374.726480053349	984.096731011507	35.519660353812	291.632685198254	1068.377628578626	96.128227213429	317.285175047505	1195.947352304295	43.584795291280	283.098481613188	1038.652126324306	1085.080121053118	101.752907011430	1217.216036222683	892.097890727002	101.405230677962	1001.268138153578	1107.583968231180	697.885231440426	1066.737864651894	855.008576479556	717.753531796008	
2	54.813428571429	857.778690656840	1008.245151722681	423.471815082480	1048.961593499079	1433.965430391239	231.738834018735	1142.260180449476	1373.008405992240	400.528476041120	1048.184487910510	1449.397466965977	567.723684596555	1024.224447452507	1499.830827436212	386.129016901266	1084.088083327386	954.721901460495	548.348853867245	1079.572889037185	963.798639934017	274.742801374347	1171.049763136323	783.244044099542	519.387135319929	1134.140565517043	662.618074915438	594.824219575756	1223.978154752510	624.336111524034	515.531167921594	1245.462164958957	513.467780547095	540.633109663487	1127.316518269967	750.246625775771	307.357678267737	1037.803372616204	635.755410682648	246.147970370585	1118.451022038246	557.191329226746	312.303107335732	1116.503804359792	487.635629830269	322.865551311720	1087.320093178355	415.663922045948	313.270500332326	994.582188377684	304.729113193678	261.686853803372	1039.313470731955	191.414502495533	332.965511143369	1172.492786058039	436.057359351222	550.901232369530	1052.807579813952	392.848005994354	612.458840586266	1044.507083159386	281.165865221422	568.498111558698	848.965571780050	214.731750315189	540.654320393516	1016.379298056048	156.066723947234	588.859831931980	905.720741957426	156.305826357599	617.257704592999	1078.353555759857	41.699309734437	617.515559294937	907.175049770396	38.603176640291	374.689833632740	978.375496566698	35.501933938551	291.605825354925	1062.681598839605	96.123414093336	317.287484530964	1190.257394479030	43.533656642351	283.116290826287	1045.341392306773	1086.406714740014	99.951253721474	1229.713412270320	899.845313666851	103.042593757517	993.330389137213	1109.517280037323	697.935384079958	1051.398212992692	856.177486557177	721.951395841105	
3	54.826857142857	856.874299373573	1008.959261932250	421.138718210170	1051.608982930558	1434.543632454446	231.295897884007	1142.663604159759	1373.051956060856	401.072062668836	1046.862365060557	1449.607806625369	567.162730614344	1025.032208897440	1500.273678363071	385.630342142575	1082.019694400828	955.568602694036	548.114549335107	1079.600443280246	963.755029915070	274.623067319304	1170.621534088818	785.993038219423	519.174036531704	1135.294146936486	665.199625848355	594.971585206358	1225.162242297749	627.697042559844	515.502376896401	1248.778334883526	518.150096776771	541.018445308482	1125.288783403094	749.523961279367	307.944624083038	1035.127992924692	635.774074643686	245.598085791286	1114.281943369764	556.534683939080	312.551665505824	1111.595785708137	487.146634687935	323.000389844659	1082.344554685237	415.438826851401	313.206269420904	989.586526433338	304.650740678567	261.440655396424	1033.811551772746	191.304115364763	332.956960435434	1178.670267098183	438.709477212186	551.443720474950	1061.455778761185	390.116622188222	613.333110808038	1058.083399321783	278.293785643104	569.187770167437	865.814106588010	202.513797191634	541.963105214802	1035.913723222234	152.463349424195	589.546486712701	925.627684040931	147.222049917789	618.456725997515	1103.549988024711	41.619709354060	618.156867740950	901.449046122303	38.589121207938	374.652632917187	972.685128275086	35.482351709627	291.579663518465	1057.016329756880	96.115575266552	317.290207800973	1184.598648087777	43.477162760214	283.135024790338	1051.994133679081	1087.706312445399	98.221197093519	1242.071018121459	907.562011753945	104.747050394236	985.481042788422	1111.450238184194	697.975134621808	1036.338110613516	857.396766789675	725.997090499283	
4	54.840285714286	855.998135870280	1009.670815211415	418.888981737096	1054.238955145944	1435.064329759802	230.938190982576	1143.102153656321	1373.053789422356	401.663773972217	1045.632788992432	1449.797321170092	566.664226894867	1025.873662877640	1500.677071148427	385.198660401864	1080.000671320169	956.340098680660	547.951888965490	1079.644881548518	963.699968000911	274.559509424449	1170.029812420320	788.459901850352	519.033636289232	1136.019421332202	667.507328816209	595.198084101717	1225.867761529983	630.639664645106	515.590073774651	1251.455103441572	522.524188381452	541.452008361838	1123.247999154996	748.786289532867	308.549430186553	1032.477027674406	635.781613546370	245.081521619791	1110.156855040677	555.884273127603	312.797816024983	1106.734512151126	486.659650349956	323.132828791400	1077.435689595387	415.212455127786	313.146142816713	984.651331373414	304.569876514635	261.200086530175	1028.374818270375	191.191415921423	332.945237838980	1184.411191881680	441.125262363384	552.036900955535	1070.041447269119	387.039060152029	614.399378062616	1071.740276675630	275.227661387145	570.028876355604	883.194125080619	189.859957509241	543.630279409170	1055.799777119692	148.822613443792	590.365227162670	946.137969832204	137.946533425314	619.926244152290	1129.185414218718	41.852244721299	618.836519085603	895.794992922860	38.576835725805	374.614188963370	967.062512036445	35.460735911109	291.554312601147	1051.418570138611	96.102685253931	317.293529603006	1179.007646180418	43.411295349287	283.154825957796	1058.556179423048	1088.944613720021	96.651338483722	1254.107648309572	915.171921775684	106.588745823527	977.852937050546	1113.361010469468	697.991322143452	1021.894440404251	858.683541020870	729.724304328900	
